PathFileType	4	(X/Y/Z)	Kaydara	
DataRate	CameraRate	NumFrames	NumMarkers	Units	OrigDataRate	OrigDataStartFrame	OrigNumFrames	
240.00	240.00	4	72	mm	240.00	134	355	
Frame#	Time	Hips			RightUpLeg			RightLeg			RightFoot			RightFoot_End			LeftUpLeg			LeftLeg			LeftFoot			LeftFoot_End			Spine			Spine1			Spine2			Spine3			Neck			Head			Head_End			RightShoulder			RightArm			RightForeArm			RightHand			RightHandThumb1			RightHandThumb2			RightHandThumb3			RightHandThumb3_End			RightInHandIndex			RightHandIndex1			RightHandIndex2			RightHandIndex3			RightHandIndex3_End			RightInHandMiddle			RightHandMiddle1			RightHandMiddle2			RightHandMiddle3			RightHandMiddle3_End			RightInHandRing			RightHandRing1			RightHandRing2			RightHandRing3			RightHandRing3_End			RightInHandPinky			RightHandPinky1			RightHandPinky2			RightHandPinky3			RightHandPinky3_End			LeftShoulder			LeftArm			LeftForeArm			LeftHand			LeftHandThumb1			LeftHandThumb2			LeftHandThumb3			LeftHandThumb3_End			LeftInHandIndex			LeftHandIndex1			LeftHandIndex2			LeftHandIndex3			LeftHandIndex3_End			LeftInHandMiddle			LeftHandMiddle1			LeftHandMiddle2			LeftHandMiddle3			LeftHandMiddle3_End			LeftInHandRing			LeftHandRing1			LeftHandRing2			LeftHandRing3			LeftHandRing3_End			LeftInHandPinky			LeftHandPinky1			LeftHandPinky2			LeftHandPinky3			LeftHandPinky3_End			
		X1	Y1	Z1	X2	Y2	Z2	X3	Y3	Z3	X4	Y4	Z4	X5	Y5	Z5	X6	Y6	Z6	X7	Y7	Z7	X8	Y8	Z8	X9	Y9	Z9	X10	Y10	Z10	X11	Y11	Z11	X12	Y12	Z12	X13	Y13	Z13	X14	Y14	Z14	X15	Y15	Z15	X16	Y16	Z16	X17	Y17	Z17	X18	Y18	Z18	X19	Y19	Z19	X20	Y20	Z20	X21	Y21	Z21	X22	Y22	Z22	X23	Y23	Z23	X24	Y24	Z24	X25	Y25	Z25	X26	Y26	Z26	X27	Y27	Z27	X28	Y28	Z28	X29	Y29	Z29	X30	Y30	Z30	X31	Y31	Z31	X32	Y32	Z32	X33	Y33	Z33	X34	Y34	Z34	X35	Y35	Z35	X36	Y36	Z36	X37	Y37	Z37	X38	Y38	Z38	X39	Y39	Z39	X40	Y40	Z40	X41	Y41	Z41	X42	Y42	Z42	X43	Y43	Z43	X44	Y44	Z44	X45	Y45	Z45	X46	Y46	Z46	X47	Y47	Z47	X48	Y48	Z48	X49	Y49	Z49	X50	Y50	Z50	X51	Y51	Z51	X52	Y52	Z52	X53	Y53	Z53	X54	Y54	Z54	X55	Y55	Z55	X56	Y56	Z56	X57	Y57	Z57	X58	Y58	Z58	X59	Y59	Z59	X60	Y60	Z60	X61	Y61	Z61	X62	Y62	Z62	X63	Y63	Z63	X64	Y64	Z64	X65	Y65	Z65	X66	Y66	Z66	X67	Y67	Z67	X68	Y68	Z68	X69	Y69	Z69	X70	Y70	Z70	X71	Y71	Z71	X72	Y72	Z72	

134	0.554	4921.0129	906.651	56.2195	4985.360270915186	886.3681455217059	-2.3647773409162176	4904.318488654928	483.697800643941	-81.98067242957984	4918.66512896361	106.12929419737144	-166.8603018100231	4844.055877415008	29.5963117655808	-8.406834831580229	4865.429022490637	898.4318038859174	126.36250984488207	4802.218384302051	495.7391540634937	222.76796473422246	4751.831271162057	64.66319721618484	295.3760217267787	4621.165973568063	-12.511914810848223	179.29363636873265	4879.743721303263	1034.040877250275	6.059786965060214	4830.1144094917245	1101.3077515003654	-42.92229518071221	4773.613347901557	1165.5592399233333	-96.20485831201745	4713.035256316801	1217.51224717589	-150.87819259156467	4647.833307112564	1273.1486783782063	-208.62727743826136	4587.298803370237	1323.691132146722	-260.2927893718777	4468.27069933422	1417.3029448753994	-310.16660166524974	4688.5409360997	1254.3980370132747	-210.52209374295293	4740.869621317395	1245.754755237488	-311.83164612105503	4751.114819940206	996.893755578084	-285.541765686535	4796.916446694978	795.491618922786	-380.52875255427625	4807.49185467531	795.1516652040864	-394.9672146853797	4805.686172315869	790.1632079685997	-410.8890626325408	4804.285707445368	783.4705332413063	-421.2404303171901	4802.995879293809	775.1376163643881	-429.23976191205657	4809.360648303815	782.8964380924156	-393.4985311080694	4821.736852667971	754.6791352354531	-411.25012099556415	4822.812055895345	738.7059847694417	-424.41988997056154	4818.499330864416	735.5977721213558	-432.27823703136346	4811.569732715056	737.6269495944542	-438.5604705578027	4808.182713934543	775.2983038006091	-390.9160149076893	4819.61909754719	743.6651187092805	-406.83326370499583	4820.587372000235	725.3287759233725	-420.80678652697947	4815.285847943187	721.1438708143078	-430.0969286726223	4807.655782857149	723.1527165197118	-436.87813890159885	4807.112743778977	770.586430355768	-388.6289024435837	4816.661609535784	737.9597147470097	-400.88054892841853	4817.27716050577	721.1017603514503	-412.62884453042483	4812.0421137535905	716.5999377837197	-421.3609972719325	4804.810438001578	718.2683399613674	-427.6285559469678	4804.906045204544	766.4762341736139	-385.5540062142531	4812.569722979186	733.7939131877197	-394.8690969780422	4812.664080873696	719.0708961313734	-403.55080802787154	4808.652822251445	715.1952564139724	-409.56893952223953	4802.135778670523	716.3324932749405	-414.91889481589106	4649.944636425393	1255.5694202285645	-166.99606468408484	4600.187344998218	1205.3411274084137	-75.65468146583721	4698.226186241485	1024.8655287087158	-195.53939159153506	4803.3653260378205	851.3931528883599	-308.1690792261708	4792.538476658419	851.7582287928827	-325.79047452785863	4788.586690568066	831.3671120484579	-351.6418817506747	4785.6319781059665	814.3838180153215	-369.52753506075425	4782.995371376915	797.8448666718788	-384.3377129871074	4789.843142805759	842.9505609504804	-326.42299772351026	4772.650212293162	814.8101279364595	-356.3277470324784	4765.895822090491	789.1652777142477	-380.15029792855773	4766.055725218378	774.3450389529514	-394.38896743803457	4769.128425569678	762.8359348558266	-405.7886108640061	4790.137932081413	836.0727924470547	-325.2063438906348	4773.52642670593	804.9070003008194	-353.7155902727242	4766.257214754213	776.09956756632	-379.45695796656025	4766.498693629482	757.8241834883486	-396.51360464369213	4769.884399603702	745.0389634528713	-408.9276783958265	4790.727281952779	831.9695093651784	-323.5582595067922	4776.182991058186	800.587266311814	-347.60327281300806	4769.977341836544	774.6852896977239	-369.73551319954373	4770.27943399629	756.6359415902579	-386.0265455725188	4773.4956324799905	744.4149776452409	-397.62238542172224	4792.358791104443	827.7580466165865	-320.99245069519185	4779.825670916356	796.4957051596757	-341.38901705629974	4775.123440275053	774.6532885612937	-358.53270276060715	4775.472951102695	760.9553913745438	-370.1353716595071	4778.396317608445	749.8230700412436	-380.24621126154096
135	0.558	4921.0129	906.651	56.2195	4984.930410063733	886.1602341247839	-2.5343840428941604	4903.954510710345	483.4296043539698	-81.88984012798564	4918.888595857161	106.02398824748754	-167.05486036850712	4844.293299423628	29.446546890869048	-8.617391666517946	4865.84257990866	898.6384836304828	126.54198235383161	4802.674115978832	495.9651809899418	223.0372000195274	4752.022159792605	64.91163178579465	295.46610726408704	4621.436875107843	-12.358203430589585	179.36550213167519	4879.827255630152	1034.0531355926553	6.023229615935086	4830.231855969739	1101.3685177858658	-42.93056573655821	4773.7515522216	1165.6699658578075	-96.17470906070255	4713.163598226693	1217.662741227515	-150.79054900590995	4647.947735868593	1273.3360864572567	-208.47828632837613	4587.400558282435	1323.912196365596	-260.0846696804229	4468.298828603045	1417.444301649109	-309.90295128079686	4688.535713116816	1254.4409249791656	-210.42528094539458	4740.524505107644	1245.4361399618115	-311.65011208356435	4750.493881755159	997.1617366514732	-284.35824209347436	4796.473603717961	797.4791724915967	-379.0208435243808	4806.724437953473	797.3281592950888	-393.63731519967484	4804.640779365347	792.718089507495	-409.4201371361502	4803.100272919879	786.305483738033	-419.6461429571246	4801.739501276742	778.2202147947469	-427.5165471334192	4808.763907261837	785.1396094343838	-392.10814062761654	4821.066576902528	757.4177925192517	-409.8230117180255	4822.045074324116	741.8429764791306	-422.8310186257933	4817.60932613616	738.9598504325126	-430.54013349273214	4810.535472971342	741.1601163374406	-436.66602171853935	4807.731991431204	777.5718137270662	-389.44279284991563	4819.175645786857	746.4383056018455	-405.2794625173313	4820.057843439059	728.5390876210466	-419.0654900645521	4814.617229037602	724.626923029384	-428.1703197277435	4806.833859794127	726.8235448359845	-434.7778983131649	4806.767857449709	772.8683938335353	-387.09928605046537	4816.41744674477	740.6958419342367	-399.2332422978933	4816.9778308945615	724.220620545695	-410.8070071298366	4811.619165992568	719.9827983161088	-419.3545114285913	4804.248342908813	721.828193627273	-425.45601685727667	4804.678987109212	768.7562379414768	-383.95108823983196	4812.510341689969	736.4882955073974	-393.1170224624687	4812.591059502416	722.0724832969869	-401.64214826187265	4808.504404389301	718.389757815899	-407.5174565335809	4801.872600017647	719.6839839414534	-412.71563095744546	4650.196433495855	1255.8819149134206	-166.83869165804674	4600.830519172056	1206.304922670568	-75.30141976980295	4698.3029212434985	1025.6290037413467	-194.54672088171876	4802.302951037795	852.6693677990204	-306.6453953053439	4791.29776138304	852.8301203213499	-324.1819777928481	4787.1323833309225	832.3490658378475	-350.18454618427586	4784.0566839330295	815.3470638357181	-368.180211239243	4781.342962116895	798.8300927739588	-383.0861586296601	4788.6958972933735	844.1614819273897	-324.7996857715806	4771.4314927656515	816.082803195217	-354.6738761717037	4764.572207859802	790.479229009781	-378.6035528750309	4764.619557181739	775.6431467406308	-392.97780460261407	4767.567163806054	764.092932799424	-404.53619977766084	4789.066050921737	837.4009508775861	-323.60309869893246	4772.4256124189305	806.3588062439461	-352.09335614417995	4765.052046469755	777.6116809355194	-377.95452673663607	4765.162583429918	759.3245080595478	-395.17614343242576	4768.413772050442	746.4978676526531	-407.76459896562903	4789.711196976599	833.379236843311	-321.96869232050466	4775.191539163277	802.1795412014064	-346.00482022296916	4768.905302737088	776.3455343896994	-368.2444965832221	4769.086596886178	758.2929965276358	-384.6962574947548	4772.178924129982	746.036963801056	-396.4568190950759	4791.403355536213	829.2575032630148	-319.4296073274719	4778.932636286809	798.2189932265385	-339.83019832509024	4774.181936864592	776.4542409284275	-357.0646676330242	4774.45110703008	762.7652573453436	-368.78687172901533	4777.269215590516	751.6083397215386	-379.04495125904884
136	0.563	4921.0129	906.651	56.2195	4984.5002333654265	885.9511372496179	-2.7040246966272936	4903.601225362776	483.1584474898449	-81.79956531609773	4919.11439634724	105.91603538558915	-167.24964248416853	4844.533434136449	29.293827440735782	-8.828153285664161	4866.255571861588	898.8460177944479	126.72124035631715	4803.132088615257	496.19245644200873	223.30960949583772	4752.215472137866	65.16139633874525	295.5604454870649	4621.711300788795	-12.204554000594356	179.44134730134462	4879.9147224576245	1034.066916251757	5.987776797731225	4830.354399993989	1101.4318100853038	-42.936886247036774	4773.896412913819	1165.785018280157	-96.1414815204875	4713.300248323499	1217.820170463669	-150.69878101308652	4648.072130070925	1273.5330843298113	-208.32406985825466	4587.513802317735	1324.1452317376545	-259.8703823238267	4468.335997640028	1417.5960649334693	-309.62990201610984	4688.540534529457	1254.4915519326942	-210.3248379301806	4740.186467205339	1245.1157041162407	-311.47127910006657	4749.864070464597	997.4176926821472	-283.20530977178737	4795.9763382215915	799.4977351295627	-377.4493830922399	4805.888894402799	799.5164623715301	-392.2473382727577	4803.499805007088	795.273445911951	-407.8823311315625	4801.800175540478	789.1367239538557	-417.975004241477	4800.352585458004	781.2987859995483	-425.7082616617334	4808.099090791335	787.4062948156699	-390.65205513079013	4820.302420745373	760.1815056914314	-408.3172422091515	4821.159990000434	745.0051639526961	-421.15093387956324	4816.584692451388	742.3435592080355	-428.70357947314506	4809.351915860998	744.709499000315	-434.667514878424	4807.213897044553	779.8788246657261	-387.89915367446855	4818.640035080359	749.2518995896534	-403.6400451542881	4819.409893235928	731.7912706509057	-417.2242939913447	4813.8103311742725	728.1481745686096	-426.134798983234	4805.8576472373425	730.526953933885	-432.5624737142271	4806.356813514257	775.1909087922248	-385.49626846630196	4816.08613807632	743.4849296829052	-397.4963848380958	4816.568675600045	727.3950468583749	-408.8825947526463	4811.067350566601	723.4183889571732	-417.2364524619565	4803.542379267978	725.4358290827421	-423.1658625865785	4804.387455917689	771.0846065748964	-382.27153807314374	4812.368464200825	739.2473558092607	-391.2715785674021	4812.417800818328	725.142854391229	-399.62886362383836	4808.242063110228	721.6519514613725	-405.35438570846696	4801.482326542242	723.0993456677091	-410.39519695226267	4650.457037997252	1256.204141530843	-166.67515914060024	4601.473477857871	1207.2820638894427	-74.93641035651358	4698.372467428336	1026.3804484024015	-193.51957259331243	4801.244871557391	853.9533168891953	-305.0477222836284	4790.050832954593	853.9105573549965	-322.50874718266317	4785.6725668950085	833.3599472347336	-348.6711436246212	4782.478885499272	816.354018847284	-366.7815573650301	4779.692704943018	799.8718534220276	-381.78611220984834	4787.550050812849	845.3813484249233	-323.10759666081213	4770.220970820649	817.3761659438252	-352.95540340319496	4763.263862951986	791.83154925419	-376.9963777154673	4763.2017637277095	776.9944465027804	-391.51023420047784	4766.025975890941	765.4179755069316	-403.23167444996886	4788.002283004354	838.7396960404565	-321.9274590251373	4771.343173528576	807.8335367235514	-350.4008429782434	4763.873837053329	779.1662031675125	-376.3858794662508	4763.857594433964	760.8852162762429	-393.777084464373	4766.976327194897	748.0334515561124	-406.54450531345066	4788.707789377588	834.800320550647	-320.30404794353734	4774.225906085364	803.7946329680417	-344.33079750257417	4767.867433691705	778.0457546946484	-366.68094798529063	4767.932406675246	760.0074587172986	-383.29762491115565	4770.9030199054105	747.7317239146321	-395.22709132899183	4790.465707851804	830.7695748993958	-317.78863546800267	4778.072575555088	799.9658844382844	-338.19085037527356	4773.281394497281	778.2927619486478	-355.5177534073596	4773.474118188292	764.625515737536	-367.36216843961006	4776.189241618758	753.457677005928	-377.7709755057919
137	0.567	4921.0129	906.651	56.2195	4984.070026799748	885.7410866570244	-2.8734222922776844	4903.258457016452	482.8847194062737	-81.70997801882245	4919.3418181669595	105.80563516560935	-167.44446632585434	4844.775505997148	29.138435815833553	-9.038926381704398	4866.6677161992	899.0541683161156	126.89998538389676	4803.592112421717	496.4207020627883	223.5847858285009	4752.411167429842	65.41219630040608	295.65870229623766	4621.989149822692	-12.051158685832537	179.5208404376462	4880.006098511727	1034.0822407733403	5.953514213981054	4830.481946058992	1101.4976314454552	-42.94112632039825	4774.0477697069555	1165.9043906765185	-96.10499399662869	4713.444988094508	1217.9845150177687	-150.60265591062225	4648.206214272039	1273.7396483933805	-208.1643339966318	4587.638218774355	1324.3902191241782	-259.64957826789924	4468.382001121736	1417.7584507476122	-309.346934155983	4688.555151516556	1254.5500529883445	-210.220349490872	4739.855041043041	1244.794191873631	-311.2940045200581	4749.226478372088	997.6625843498252	-282.0832381324456	4795.424294523571	801.5437077818909	-375.8163905895599	4804.986029236005	801.712936865384	-390.7985215801586	4802.265635657142	797.8245827199784	-406.277083138966	4800.388731034062	791.9586958460529	-416.22872177996294	4798.83907528672	784.3669428827263	-423.8169479799753	4807.366411019359	789.6924537436644	-389.13183521445495	4819.445188836037	762.9648357978377	-406.7344483451638	4820.158466444271	748.1858258979339	-419.3816903511539	4815.427966409005	745.7414226625986	-426.7709799140354	4808.022549373333	748.2670261281022	-432.5677056422584	4806.628176128568	782.2149831631233	-386.2870242320266	4818.012336096677	752.1000140092485	-401.9172098937909	4818.644466314945	735.0780019199012	-415.28590205752164	4812.867122406735	731.6993742454961	-423.99351613418344	4804.73013954752	734.2540321919773	-430.2354098119799	4805.87900689247	777.5494383849069	-383.82203051867236	4815.667049586817	746.3209138157854	-395.67261273193304	4816.049757885632	730.6176875432528	-406.8587333692782	4810.387683219284	726.898443850285	-415.0104026286376	4802.69451150493	729.0823505438136	-420.7620591876892	4804.03046912972	773.456616403948	-380.5178496152954	4812.142830461548	742.064860738507	-389.3358602783939	4812.143502146656	728.2746961718065	-397.51451612258955	4807.865641662651	724.9738337218087	-403.0836580642249	4800.965613773472	726.5700032126509	-407.9618846283246	4650.726180226608	1256.5359105701443	-166.50533921207966	4602.116163862691	1208.2715951472048	-74.56034271712727	4698.435112828144	1027.1197551278826	-192.4598640072044	4800.193755926448	855.243493732076	-303.37764151724303	4788.801245740551	854.9989302498633	-320.77191595072685	4784.211433269801	834.3991930698512	-347.1017204482513	4780.903089427843	817.4039802108587	-365.3309512650281	4778.049258025871	800.9691821683882	-380.43646979651095	4786.408770175886	846.6090581393418	-321.34822827778936	4769.022115962537	818.6889125309098	-351.17364112924645	4761.974493372753	793.2205716155332	-375.3294802127217	4761.806294040927	778.3970789400105	-389.98626947695533	4764.50907714159	766.8090668493962	-401.8742583607989	4786.9494337788365	840.0874541320126	-320.1811469088163	4770.282015253446	809.3291665762786	-348.63971327971416	4762.725701163201	780.7606509566549	-374.75204846204434	4762.58711134948	762.5035629543241	-392.3166363333034	4765.5757295975955	749.6428058374892	-405.26674878610856	4787.719600530005	836.2308598068631	-318.566216883661	4773.28849030786	805.4299558894638	-342.58320375463774	4766.866265881031	779.7829030661592	-365.046347499347	4766.819628555229	761.7759948145585	-381.8313494529837	4769.670935585705	749.4957545777484	-393.93310534482623	4789.548084555353	832.291981267445	-316.07158286663014	4777.247402793978	801.7332398393983	-336.4732354565534	4772.423756363082	780.1652483164816	-353.89385344517575	4772.544061140146	766.5323090520411	-365.8626099366211	4775.158672758829	755.3670474270994	-376.42493789056266
